<svg width="35" height="35" viewBox="0 0 35 35" fill="none" xmlns="http://www.w3.org/2000/svg">
<g clip-path="url(#clip0_3739_6086)">
<path d="M29.651 33.9746V7.30794C29.651 5.46823 28.1574 3.97461 26.3177 3.97461H9.65104C7.81132 3.97461 6.31771 5.46823 6.31771 7.30794V33.9746M29.651 33.9746H32.9844M29.651 33.9746H21.3177M6.31771 33.9746H2.98438M6.31771 33.9746H14.651M21.3177 33.9746V25.6413C21.3177 24.7214 20.5709 23.9746 19.651 23.9746H16.3177C15.3978 23.9746 14.651 24.7214 14.651 25.6413V33.9746M21.3177 33.9746H14.651M12.9844 10.6413H14.651M12.9844 17.3079H14.651M21.3177 10.6413H22.9844M21.3177 17.3079H22.9844" stroke="#00A896" stroke-width="2.58142" stroke-linecap="round" stroke-linejoin="round"/>
</g>
<defs>
<clipPath id="clip0_3739_6086">
<rect width="34.4189" height="34.4189" fill="white"/>
</clipPath>
</defs>
</svg>
