<svg width="722" height="479" viewBox="0 0 722 479" fill="none" xmlns="http://www.w3.org/2000/svg">
<g opacity="0.85" clip-path="url(#clip0_3762_7598)">
<g filter="url(#filter0_f_3762_7598)">
<path d="M-120.656 338.82C39.1082 322.843 118.99 418.702 246.802 378.761C342.661 346.808 390.59 242.961 438.519 274.914" stroke="url(#paint0_linear_3762_7598)" stroke-width="51.1246" stroke-linecap="round"/>
</g>
<g filter="url(#filter1_f_3762_7598)">
<path d="M-99.3594 416.572C28.4522 400.596 92.358 464.502 204.193 440.537C300.052 416.572 339.993 336.69 387.922 360.655" stroke="url(#paint1_linear_3762_7598)" stroke-width="34.0831" stroke-linecap="round"/>
</g>
<path opacity="0.3" d="M-163.266 447.1C-3.50117 439.111 92.3575 487.041 212.181 455.088C316.028 423.135 355.969 359.229 475.792 391.182L-163.266 447.1Z" fill="url(#paint2_linear_3762_7598)"/>
</g>
<defs>
<filter id="filter0_f_3762_7598" x="-167.552" y="221.985" width="652.971" height="213.482" filterUnits="userSpaceOnUse" color-interpolation-filters="sRGB">
<feFlood flood-opacity="0" result="BackgroundImageFix"/>
<feBlend mode="normal" in="SourceGraphic" in2="BackgroundImageFix" result="shape"/>
<feGaussianBlur stdDeviation="10.6667" result="effect1_foregroundBlur_3762_7598"/>
</filter>
<filter id="filter1_f_3762_7598" x="-127.073" y="328.514" width="542.708" height="145.167" filterUnits="userSpaceOnUse" color-interpolation-filters="sRGB">
<feFlood flood-opacity="0" result="BackgroundImageFix"/>
<feBlend mode="normal" in="SourceGraphic" in2="BackgroundImageFix" result="shape"/>
<feGaussianBlur stdDeviation="5.33333" result="effect1_foregroundBlur_3762_7598"/>
</filter>
<linearGradient id="paint0_linear_3762_7598" x1="-35.4486" y1="319.529" x2="497.1" y2="426.038" gradientUnits="userSpaceOnUse">
<stop stop-color="#49D3C1" stop-opacity="0.35"/>
<stop offset="1" stop-color="#99E9DC" stop-opacity="0.05"/>
</linearGradient>
<linearGradient id="paint1_linear_3762_7598" x1="-35.4536" y1="383.435" x2="390.585" y2="447.34" gradientUnits="userSpaceOnUse">
<stop stop-color="#00A896" stop-opacity="0.4"/>
<stop offset="1" stop-color="#9EEADE" stop-opacity="0.08"/>
</linearGradient>
<linearGradient id="paint2_linear_3762_7598" x1="-141.964" y1="372.783" x2="497.094" y2="479.293" gradientUnits="userSpaceOnUse">
<stop stop-color="#BBF0E7" stop-opacity="0.5"/>
<stop offset="1" stop-color="#D5F7F1" stop-opacity="0"/>
</linearGradient>
<clipPath id="clip0_3762_7598">
<rect width="768" height="479.293" fill="white" transform="translate(-46.6719)"/>
</clipPath>
</defs>
</svg>
