<svg width="35" height="35" viewBox="0 0 35 35" fill="none" xmlns="http://www.w3.org/2000/svg">
<g clip-path="url(#clip0_3417_5059)">
<path d="M13.158 18.6087C13.0882 18.3343 12.809 18.1689 12.5347 18.2384C12.4694 18.255 12.4081 18.2843 12.3541 18.3246C12.3002 18.3649 12.2548 18.4154 12.2204 18.4733C12.186 18.5312 12.1633 18.5953 12.1537 18.662C12.1441 18.7286 12.1477 18.7965 12.1643 18.8617C12.7855 21.3013 14.9794 23.0051 17.4995 23.0051C20.5352 23.0051 23.005 20.5353 23.005 17.4996C23.005 14.4639 20.5352 11.9941 17.4995 11.9941C14.991 11.9941 12.7996 13.6881 12.1704 16.1137C12.1535 16.1789 12.1496 16.2467 12.1589 16.3134C12.1682 16.3801 12.1906 16.4443 12.2247 16.5023C12.2588 16.5604 12.3041 16.6111 12.3578 16.6517C12.4116 16.6922 12.4728 16.7218 12.5379 16.7387C12.6031 16.7556 12.671 16.7595 12.7377 16.7502C12.8043 16.7409 12.8685 16.7185 12.9266 16.6844C12.9846 16.6502 13.0354 16.605 13.0759 16.5512C13.1165 16.4975 13.1461 16.4363 13.163 16.3711C13.6748 14.3978 15.4581 13.0196 17.4995 13.0196C19.9699 13.0196 21.9796 15.0293 21.9796 17.4997C21.9796 19.97 19.9699 21.9797 17.4995 21.9797C15.4486 21.9797 13.6633 20.5935 13.158 18.6087Z" fill="#00A79D"/>
<path d="M27.3607 16.8534H29.2733C29.3449 16.8534 29.4156 16.8384 29.4811 16.8095C29.5465 16.7805 29.6051 16.7382 29.6532 16.6852C29.7012 16.6322 29.7377 16.5697 29.7601 16.5018C29.7826 16.4339 29.7906 16.362 29.7836 16.2908C29.2122 10.4469 24.5559 5.7906 18.712 5.21918C18.6408 5.2123 18.569 5.22035 18.5011 5.24282C18.4332 5.26529 18.3707 5.30169 18.3177 5.34968C18.2647 5.39775 18.2223 5.45637 18.1934 5.52178C18.1644 5.58719 18.1494 5.65794 18.1494 5.72948V7.64211C18.1494 7.99888 17.8592 8.28913 17.5024 8.28913C17.1456 8.28913 16.8554 7.99888 16.8554 7.64211V5.72955C16.8554 5.65801 16.8404 5.58726 16.8115 5.52185C16.7825 5.45644 16.7401 5.39781 16.6872 5.34975C16.6342 5.30168 16.5717 5.26524 16.5038 5.24277C16.4359 5.22029 16.364 5.21228 16.2928 5.21925C10.4489 5.79067 5.79259 10.447 5.22117 16.2909C5.21423 16.3621 5.22226 16.4339 5.24474 16.5018C5.26723 16.5697 5.30367 16.6322 5.35173 16.6852C5.39979 16.7382 5.4584 16.7805 5.5238 16.8095C5.5892 16.8385 5.65994 16.8535 5.73147 16.8535H7.6441C8.00087 16.8535 8.29112 17.1437 8.29112 17.5005C8.29112 17.8573 8.00087 18.1475 7.6441 18.1475H5.73161C5.66007 18.1475 5.58932 18.1625 5.52391 18.1914C5.45849 18.2204 5.39987 18.2628 5.3518 18.3157C5.30374 18.3687 5.2673 18.4312 5.24483 18.4991C5.22235 18.567 5.21434 18.6389 5.22131 18.7101C5.42946 20.8385 6.19645 22.8876 7.43943 24.6357C8.6576 26.3489 10.3005 27.7328 12.1904 28.6377C12.3127 28.694 12.4523 28.7 12.579 28.6543C12.7057 28.6087 12.8093 28.5149 12.8675 28.3935C12.9257 28.272 12.9337 28.1325 12.8899 28.0051C12.8461 27.8778 12.7539 27.7728 12.6333 27.7128C9.24494 26.0905 6.86296 22.8528 6.3115 19.173H7.64431C8.56647 19.173 9.31672 18.4227 9.31672 17.5006C9.31672 16.5784 8.56647 15.8281 7.64431 15.8281H6.31109C7.04056 10.9227 10.9247 7.03863 15.8301 6.30917V7.64232C15.8301 8.56448 16.5803 9.31473 17.5025 9.31473C18.4246 9.31473 19.1749 8.56448 19.1749 7.64232V6.30904C24.0803 7.0385 27.9644 10.9226 28.6939 15.828H27.3607C26.4386 15.828 25.6883 16.5783 25.6883 17.5004C25.6883 18.4226 26.4386 19.1728 27.3607 19.1728H28.6939C27.9644 24.0782 24.0803 27.9623 19.1749 28.6918V27.3587C19.1749 26.4365 18.4246 25.6863 17.5025 25.6863C16.5803 25.6863 15.8301 26.4365 15.8301 27.3587V28.6915C15.5081 28.6434 15.1883 28.5815 14.8717 28.5059C14.7394 28.4743 14.6 28.4965 14.4841 28.5677C14.3683 28.6389 14.2854 28.7531 14.2538 28.8854C14.2222 29.0177 14.2445 29.1571 14.3156 29.2729C14.3868 29.3888 14.5011 29.4716 14.6334 29.5032C15.1796 29.6335 15.734 29.7265 16.2928 29.7815C16.364 29.7887 16.4359 29.7808 16.5039 29.7583C16.5718 29.7358 16.6343 29.6993 16.6872 29.6511C16.7402 29.603 16.7825 29.5444 16.8115 29.479C16.8405 29.4136 16.8555 29.3428 16.8555 29.2713V27.3587C16.8555 27.0019 17.1457 26.7116 17.5025 26.7116C17.8592 26.7116 18.1495 27.0019 18.1495 27.3587V29.2713C18.1495 29.4159 18.2106 29.5539 18.3177 29.6511C18.3707 29.6992 18.4332 29.7356 18.5011 29.7581C18.569 29.7805 18.6408 29.7886 18.712 29.7816C24.5559 29.2102 29.2122 24.5539 29.7836 18.71C29.7906 18.6388 29.7826 18.5669 29.7601 18.499C29.7376 18.4311 29.7011 18.3686 29.6531 18.3157C29.605 18.2627 29.5464 18.2203 29.481 18.1914C29.4156 18.1624 29.3449 18.1474 29.2733 18.1474H27.3607C27.004 18.1474 26.7137 17.8571 26.7137 17.5004C26.7137 17.1436 27.004 16.8534 27.3607 16.8534Z" fill="#00A79D"/>
<path d="M33.3276 15.8276H32.0644C31.7356 12.9367 30.5648 10.2419 28.6619 8.00755C28.6183 7.95628 28.565 7.91412 28.505 7.88346C28.4451 7.8528 28.3797 7.83425 28.3125 7.82887C28.2454 7.82348 28.1779 7.83138 28.1138 7.85209C28.0498 7.8728 27.9904 7.90593 27.9392 7.94958C27.8879 7.99323 27.8457 8.04656 27.8151 8.10651C27.7844 8.16646 27.7659 8.23185 27.7605 8.29897C27.7551 8.36609 27.763 8.4336 27.7838 8.49767C27.8045 8.56173 27.8376 8.62109 27.8813 8.67234C29.7469 10.8629 30.8559 13.5288 31.0883 16.3818C31.0988 16.5102 31.1572 16.6299 31.2519 16.7172C31.3465 16.8045 31.4706 16.8529 31.5994 16.8529H33.3276C33.6844 16.8529 33.9746 17.1432 33.9746 17.4999C33.9746 17.8567 33.6844 18.147 33.3276 18.147H31.5994C31.4706 18.1469 31.3465 18.1954 31.2519 18.2827C31.1572 18.3699 31.0988 18.4897 31.0883 18.618C30.8271 21.8234 29.4234 24.8484 27.1359 27.1359C24.8484 29.4234 21.8234 30.8271 18.6181 31.0883C18.4897 31.0988 18.37 31.1572 18.2827 31.2519C18.1955 31.3465 18.147 31.4706 18.147 31.5994V33.3275C18.147 33.6843 17.8568 33.9745 17.5 33.9745C17.1432 33.9745 16.853 33.6843 16.853 33.3275V31.5994C16.853 31.4706 16.8045 31.3465 16.7173 31.2519C16.63 31.1572 16.5103 31.0988 16.3819 31.0883C13.1765 30.8271 10.1515 29.4234 7.86406 27.1359C5.57662 24.8484 4.17286 21.8233 3.91159 18.618C3.90114 18.4897 3.84276 18.3699 3.74807 18.2827C3.65338 18.1954 3.52931 18.1469 3.40054 18.147H1.67241C1.31564 18.147 1.02539 17.8567 1.02539 17.4999C1.02539 17.1432 1.31564 16.8529 1.67241 16.8529H3.40054C3.52931 16.8529 3.65338 16.8045 3.74807 16.7172C3.84276 16.6299 3.90114 16.5102 3.91159 16.3818C4.17286 13.1765 5.57655 10.1514 7.86406 7.86399C10.1516 5.57655 13.1766 4.17279 16.3819 3.91152C16.5103 3.90107 16.63 3.84269 16.7173 3.748C16.8045 3.65331 16.853 3.52925 16.853 3.40047V1.67234C16.853 1.31558 17.1432 1.02532 17.5 1.02532C17.8568 1.02532 18.147 1.31558 18.147 1.67234V3.40047C18.147 3.52925 18.1955 3.65331 18.2827 3.748C18.37 3.84269 18.4897 3.90107 18.6181 3.91152C21.3974 4.13807 24.0085 5.20119 26.1691 6.98592C26.221 7.0288 26.2808 7.06103 26.3452 7.08078C26.4096 7.10053 26.4772 7.10741 26.5442 7.10102C26.6112 7.09464 26.6763 7.07511 26.7358 7.04356C26.7953 7.01201 26.848 6.96906 26.8909 6.91715C26.9337 6.86524 26.966 6.80539 26.9857 6.74102C27.0055 6.67666 27.0124 6.60903 27.006 6.542C26.9996 6.47498 26.9801 6.40986 26.9485 6.35038C26.917 6.2909 26.874 6.23822 26.8221 6.19534C24.6213 4.37739 21.9855 3.25582 19.1725 2.93549V1.67241C19.1724 0.750244 18.4222 0 17.5 0C16.5778 0 15.8276 0.750244 15.8276 1.67241V2.93569C12.5557 3.31037 9.48589 4.79199 7.13897 7.13897C4.79206 9.48596 3.31037 12.5556 2.93569 15.8276H1.67241C0.750244 15.8276 0 16.5778 0 17.5C0 18.4222 0.750244 19.1724 1.67241 19.1724H2.93569C3.31037 22.4443 4.79199 25.5141 7.13897 27.861C9.48596 30.2079 12.5556 31.6896 15.8276 32.0643V33.3276C15.8276 34.2498 16.5778 35 17.5 35C18.4222 35 19.1724 34.2498 19.1724 33.3276V32.0643C22.4443 31.6896 25.5141 30.208 27.861 27.861C30.2079 25.514 31.6896 22.4444 32.0642 19.1724H33.3276C34.2498 19.1724 35 18.4222 35 17.5C35 16.5778 34.2498 15.8276 33.3276 15.8276Z" fill="#00A79D"/>
<path d="M19.7749 17.4998C19.7749 16.2458 18.7547 15.2256 17.5007 15.2256C16.2468 15.2256 15.2266 16.2458 15.2266 17.4998C15.2266 18.7538 16.2468 19.7739 17.5007 19.7739C18.7547 19.7739 19.7749 18.7538 19.7749 17.4998ZM16.252 17.4998C16.252 16.8112 16.8121 16.251 17.5007 16.251C18.1894 16.251 18.7495 16.8111 18.7495 17.4998C18.7495 18.1884 18.1894 18.7486 17.5007 18.7486C16.8121 18.7486 16.252 18.1883 16.252 17.4998Z" fill="#00A79D"/>
</g>
<defs>
<clipPath id="clip0_3417_5059">
<rect width="35" height="35" fill="white"/>
</clipPath>
</defs>
</svg>
